<?xml version="1.0" encoding="UTF-8"?>
<!DOCTYPE svg PUBLIC "-//W3C//DTD SVG 1.1//EN" "http://www.w3.org/Graphics/SVG/1.1/DTD/svg11.dtd">
<svg version="1.1" xmlns="http://www.w3.org/2000/svg" xmlns:xlink="http://www.w3.org/1999/xlink" x="0" y="0" viewBox="0, 0, 24, 15">
    <path d="M1.5,0 L22.5,0 C23.328,0 24,0.672 24,1.5 L24,1.5 C24,2.328 23.328,3 22.5,3 L1.5,3 C0.672,3 0,2.328 0,1.5 L0,1.5 C0,0.672 0.672,0 1.5,0 z" />
    <path d="M1.5,6 L22.5,6 C23.328,6 24,6.672 24,7.5 L24,7.5 C24,8.328 23.328,9 22.5,9 L1.5,9 C0.672,9 0,8.328 0,7.5 L0,7.5 C0,6.672 0.672,6 1.5,6 z" />
    <path d="M1.5,12 L22.5,12 C23.328,12 24,12.672 24,13.5 L24,13.5 C24,14.328 23.328,15 22.5,15 L1.5,15 C0.672,15 0,14.328 0,13.5 L0,13.5 C0,12.672 0.672,12 1.5,12 z" />
</svg>
